<svg width="547" height="175" viewBox="0 0 547 175" fill="none" xmlns="http://www.w3.org/2000/svg">
<path d="M108.123 54.0233C108.123 54.73 107.974 55.3995 107.677 56.0317C107.416 56.664 107.045 57.2219 106.561 57.7054C106.078 58.189 105.52 58.5795 104.887 58.877C104.255 59.1374 103.586 59.2676 102.879 59.2676H64.3281V82.5878H93.3946C94.0641 82.5878 94.715 82.7365 95.3473 83.0341C95.9795 83.3316 96.5374 83.7221 97.021 84.2057C97.5045 84.6892 97.8764 85.2471 98.1368 85.8794C98.4343 86.5116 98.5831 87.1625 98.5831 87.832C98.5831 89.2453 98.0624 90.4727 97.021 91.5141C95.9795 92.5556 94.7708 93.0763 93.3946 93.0763H64.3281V121.641C64.3281 122.385 64.1793 123.073 63.8817 123.705C63.6214 124.3 63.2495 124.839 62.7659 125.323C62.2824 125.769 61.7245 126.122 61.0922 126.383C60.46 126.643 59.7905 126.773 59.0838 126.773C58.3771 126.773 57.7077 126.643 57.0754 126.383C56.4431 126.122 55.8852 125.769 55.4017 125.323C54.9182 124.839 54.5276 124.281 54.2301 123.649C53.9697 123.017 53.8396 122.347 53.8396 121.641V54.0233C53.8396 53.3538 53.9883 52.7029 54.2859 52.0707C54.5834 51.4384 54.9739 50.8805 55.4575 50.397C55.941 49.9135 56.4989 49.5415 57.1312 49.2812C57.7634 48.9836 58.4143 48.8348 59.0838 48.8348H102.879C104.292 48.8348 105.52 49.3556 106.561 50.397C107.602 51.4384 108.123 52.6472 108.123 54.0233ZM174.826 87.832C174.826 80.0214 172.017 73.308 166.401 67.6918C160.785 62.0757 154.072 59.2676 146.261 59.2676C138.451 59.2676 131.737 62.0757 126.121 67.6918C120.505 73.308 117.697 80.0214 117.697 87.832C117.697 95.6426 120.505 102.356 126.121 107.972C131.737 113.588 138.451 116.396 146.261 116.396C154.072 116.396 160.785 113.588 166.401 107.972C172.017 102.356 174.826 95.6426 174.826 87.832ZM185.314 87.832C185.314 98.5437 181.465 107.712 173.766 115.336C166.141 122.961 156.973 126.773 146.261 126.773C135.549 126.773 126.381 122.961 118.757 115.336C111.095 107.675 107.264 98.5065 107.264 87.832C107.264 77.1947 111.095 68.0452 118.757 60.3834C126.456 52.6844 135.624 48.8348 146.261 48.8348C156.936 48.8348 166.104 52.6844 173.766 60.3834C181.465 68.0452 185.314 77.1947 185.314 87.832ZM257.729 87.832C257.729 80.0214 254.921 73.308 249.305 67.6918C243.689 62.0757 236.976 59.2676 229.165 59.2676C221.354 59.2676 214.641 62.0757 209.025 67.6918C203.409 73.308 200.601 80.0214 200.601 87.832C200.601 95.6426 203.409 102.356 209.025 107.972C214.641 113.588 221.354 116.396 229.165 116.396C236.976 116.396 243.689 113.588 249.305 107.972C254.921 102.356 257.729 95.6426 257.729 87.832ZM268.218 87.832C268.218 98.5437 264.368 107.712 256.669 115.336C249.045 122.961 239.877 126.773 229.165 126.773C218.453 126.773 209.285 122.961 201.661 115.336C193.999 107.675 190.168 98.5065 190.168 87.832C190.168 77.1947 193.999 68.0452 201.661 60.3834C209.36 52.6844 218.528 48.8348 229.165 48.8348C239.839 48.8348 249.008 52.6844 256.669 60.3834C264.368 68.0452 268.218 77.1947 268.218 87.832ZM334.441 87.832C334.441 80.0214 331.632 73.308 326.016 67.6918C320.4 62.0757 313.687 59.2676 305.876 59.2676H285.903V116.396H305.876C313.687 116.396 320.4 113.588 326.016 107.972C331.632 102.356 334.441 95.6426 334.441 87.832ZM344.929 87.832C344.929 98.5437 341.08 107.712 333.381 115.336C325.756 122.961 316.588 126.773 305.876 126.773H275.415V48.8348H305.876C316.551 48.8348 325.719 52.6844 333.381 60.3834C341.08 68.0452 344.929 77.1947 344.929 87.832ZM418.652 47.8306V64.5676H368.441V78.5151H407.494V95.2521H368.441V109.2H418.652V125.937H351.704V47.8306H418.652ZM457.705 47.8306C468.491 47.8306 477.696 51.6429 485.321 59.2676C492.946 66.8922 496.758 76.0975 496.758 86.8836C496.758 97.6696 492.946 106.875 485.321 114.5C477.696 122.124 468.491 125.937 457.705 125.937H429.81V47.8306H457.705ZM457.705 109.2C463.879 109.2 469.142 107.024 473.494 102.672C477.845 98.3205 480.021 93.0577 480.021 86.8836C480.021 80.7095 477.845 75.4466 473.494 71.095C469.142 66.7434 463.879 64.5676 457.705 64.5676H446.547V109.2H457.705Z" fill="white"/>
<line x1="9.12329" y1="169.332" x2="536.895" y2="169.332" stroke="white" stroke-width="10.8949"/>
<line x1="6.07478" y1="174.779" x2="6.07478" y2="0.854584" stroke="white" stroke-width="10.8949"/>
<line x1="541.134" y1="174.779" x2="541.134" y2="0.854584" stroke="white" stroke-width="10.8949"/>
<line x1="6.72437" y1="6.29279" x2="536.895" y2="6.29279" stroke="white" stroke-width="10.8949"/>
</svg>
