<svg width="687" height="220" viewBox="0 0 687 220" fill="none" xmlns="http://www.w3.org/2000/svg">
<path d="M135.522 67.5885C135.522 68.4772 135.335 69.3191 134.961 70.1143C134.633 70.9095 134.165 71.6111 133.557 72.2192C132.949 72.8273 132.248 73.3184 131.452 73.6926C130.657 74.0201 129.815 74.1838 128.927 74.1838H80.444V103.512H116.999C117.841 103.512 118.659 103.699 119.455 104.073C120.25 104.447 120.951 104.938 121.559 105.547C122.168 106.155 122.635 106.856 122.963 107.651C123.337 108.447 123.524 109.265 123.524 110.107C123.524 111.885 122.869 113.428 121.559 114.738C120.25 116.048 118.73 116.702 116.999 116.702H80.444V152.626C80.444 153.561 80.2569 154.427 79.8827 155.222C79.5553 155.97 79.0876 156.648 78.4795 157.257C77.8714 157.818 77.1698 158.262 76.3746 158.59C75.5794 158.917 74.7375 159.081 73.8487 159.081C72.96 159.081 72.1181 158.917 71.3229 158.59C70.5277 158.262 69.8261 157.818 69.218 157.257C68.6099 156.648 68.1188 155.947 67.7446 155.152C67.4171 154.356 67.2534 153.515 67.2534 152.626V67.5885C67.2534 66.7465 67.4405 65.9279 67.8147 65.1328C68.1889 64.3376 68.6801 63.636 69.2882 63.0279C69.8962 62.4198 70.5979 61.9521 71.393 61.6246C72.1882 61.2504 73.0068 61.0633 73.8487 61.0633H128.927C130.704 61.0633 132.248 61.7182 133.557 63.0279C134.867 64.3376 135.522 65.8578 135.522 67.5885ZM219.408 110.107C219.408 100.284 215.877 91.8414 208.814 84.7784C201.751 77.7153 193.308 74.1838 183.485 74.1838C173.662 74.1838 165.219 77.7153 158.156 84.7784C151.093 91.8414 147.562 100.284 147.562 110.107C147.562 119.93 151.093 128.373 158.156 135.436C165.219 142.499 173.662 146.03 183.485 146.03C193.308 146.03 201.751 142.499 208.814 135.436C215.877 128.373 219.408 119.93 219.408 110.107ZM232.599 110.107C232.599 123.578 227.758 135.108 218.075 144.697C208.486 154.286 196.956 159.081 183.485 159.081C170.014 159.081 158.484 154.286 148.895 144.697C139.259 135.062 134.441 123.532 134.441 110.107C134.441 96.7294 139.259 85.2227 148.895 75.587C158.577 65.9046 170.107 61.0633 183.485 61.0633C196.91 61.0633 208.44 65.9046 218.075 75.587C227.758 85.2227 232.599 96.7294 232.599 110.107ZM323.67 110.107C323.67 100.284 320.139 91.8414 313.076 84.7784C306.013 77.7153 297.57 74.1838 287.747 74.1838C277.924 74.1838 269.481 77.7153 262.418 84.7784C255.355 91.8414 251.824 100.284 251.824 110.107C251.824 119.93 255.355 128.373 262.418 135.436C269.481 142.499 277.924 146.03 287.747 146.03C297.57 146.03 306.013 142.499 313.076 135.436C320.139 128.373 323.67 119.93 323.67 110.107ZM336.861 110.107C336.861 123.578 332.02 135.108 322.337 144.697C312.748 154.286 301.218 159.081 287.747 159.081C274.276 159.081 262.746 154.286 253.157 144.697C243.521 135.062 238.703 123.532 238.703 110.107C238.703 96.7294 243.521 85.2227 253.157 75.587C262.839 65.9046 274.369 61.0633 287.747 61.0633C301.172 61.0633 312.702 65.9046 322.337 75.587C332.02 85.2227 336.861 96.7294 336.861 110.107ZM420.144 110.107C420.144 100.284 416.613 91.8414 409.55 84.7784C402.487 77.7153 394.044 74.1838 384.221 74.1838H359.103V146.03H384.221C394.044 146.03 402.487 142.499 409.55 135.436C416.613 128.373 420.144 119.93 420.144 110.107ZM433.335 110.107C433.335 123.578 428.494 135.108 418.811 144.697C409.222 154.286 397.692 159.081 384.221 159.081H345.912V61.0633H384.221C397.645 61.0633 409.175 65.9046 418.811 75.587C428.494 85.2227 433.335 96.7294 433.335 110.107ZM526.051 59.8004V80.8492H462.904V98.3899H512.018V119.439H462.904V136.979H526.051V158.028H441.855V59.8004H526.051ZM575.165 59.8004C588.73 59.8004 600.306 64.5949 609.895 74.1838C619.484 83.7727 624.279 95.3495 624.279 108.914C624.279 122.479 619.484 134.056 609.895 143.645C600.306 153.234 588.73 158.028 575.165 158.028H540.083V59.8004H575.165ZM575.165 136.979C582.929 136.979 589.548 134.243 595.021 128.77C600.494 123.298 603.23 116.679 603.23 108.914C603.23 101.15 600.494 94.531 595.021 89.0583C589.548 83.5856 582.929 80.8492 575.165 80.8492H561.132V136.979H575.165Z" fill="#f8ece2"/>
<line x1="11.0171" y1="212.882" x2="674.756" y2="212.882" stroke="#f8ece2" stroke-width="13.7017"/>
<line x1="7.1831" y1="219.732" x2="7.1831" y2="1.00038" stroke="#f8ece2" stroke-width="13.7017"/>
<line x1="680.087" y1="219.732" x2="680.087" y2="1.00038" stroke="#f8ece2" stroke-width="13.7017"/>
<line x1="8" y1="7.83959" x2="674.756" y2="7.83959" stroke="#f8ece2" stroke-width="13.7017"/>
</svg>
